<?xml version="1.0" encoding="UTF-8"?>
<svg xmlns="http://www.w3.org/2000/svg" xmlns:xlink="http://www.w3.org/1999/xlink" width="518.13pt" height="129.92pt" viewBox="0 0 518.13 129.92" version="1.1">
<defs>
<clipPath id="clip1">
  <path d="M 0 0 L 518.128906 0 L 518.128906 117 L 0 117 Z M 0 0 "/>
</clipPath>
<clipPath id="clip2">
  <path d="M 0 12 L 518.128906 12 L 518.128906 129.921875 L 0 129.921875 Z M 0 12 "/>
</clipPath>
</defs>
<g id="surface1">
<path style=" stroke:none;fill-rule:nonzero;fill:rgb(10.998535%,10.998535%,10.598755%);fill-opacity:1;" d="M 141 92.378906 L 143.625 92.378906 L 143.625 69.253906 L 141 69.253906 Z M 141 92.378906 "/>
<path style=" stroke:none;fill-rule:nonzero;fill:rgb(10.998535%,10.998535%,10.598755%);fill-opacity:1;" d="M 292.375 12.796875 L 292.375 43.773438 L 280.5625 43.773438 L 280.5625 46.335938 L 295.6875 46.335938 L 295.6875 12.796875 "/>
<path style=" stroke:none;fill-rule:nonzero;fill:rgb(10.998535%,10.998535%,10.598755%);fill-opacity:1;" d="M 326.5 100.335938 C 319.5 100.335938 321.125 77.929688 321.125 65.652344 C 321.125 53.375 320.660156 31.144531 327 30.460938 C 332.796875 29.835938 332.75 53.375 332.75 65.652344 C 332.75 77.929688 333.75 100.335938 326.5 100.335938 M 326.441406 23.210938 C 312.75 23.210938 313.125 42.210938 313.125 65.648438 C 313.125 89.085938 314.691406 107.757813 326.441406 108.085938 C 337.074219 108.386719 339.875 89.085938 339.875 65.648438 C 339.875 42.210938 338.75 23.210938 326.441406 23.210938 "/>
<path style=" stroke:none;fill-rule:nonzero;fill:rgb(10.998535%,10.998535%,10.598755%);fill-opacity:1;" d="M 359.667969 35.546875 L 369.417969 35.546875 L 369.417969 32.753906 L 359.667969 32.753906 Z M 359.667969 35.546875 "/>
<path style=" stroke:none;fill-rule:nonzero;fill:rgb(10.998535%,10.998535%,10.598755%);fill-opacity:1;" d="M 396.042969 52.613281 L 396.042969 32.476563 C 403.957031 32.617188 405.960938 36.140625 405.960938 42.53125 C 405.960938 47.773438 403.433594 52.65625 396.042969 52.613281 M 394.625 26.351563 L 388.125 26.421875 L 388.125 59.085938 L 394.625 59.121094 C 409.292969 60.003906 411.804688 50.164063 412.417969 42.726563 C 413.125 34.148438 410.125 26.347656 394.625 26.351563 "/>
<g clip-path="url(#clip1)" clip-rule="nonzero">
<path style=" stroke:none;fill-rule:nonzero;fill:rgb(10.998535%,10.998535%,10.598755%);fill-opacity:1;" d="M 435.410156 15.273438 L 441.378906 34.148438 L 434 34.148438 L 434 15.273438 Z M 419.0625 21.003906 C 417.078125 18.816406 414.605469 16.972656 411.582031 15.585938 L 419.0625 15.585938 Z M 368.6875 55.023438 L 361.8125 55.023438 L 361.8125 47.398438 L 368.6875 47.398438 Z M 346.25 22.511719 C 344.625 19.113281 342.699219 16.898438 340.5 15.460938 L 346.25 15.460938 Z M 309 19 L 309 15.460938 L 312.703125 15.460938 C 311.371094 16.328125 310.132813 17.480469 309 19 M 368.914063 20.460938 L 361.582031 20.460938 L 361.582031 6.503906 L 368.914063 6.503906 Z M 280.375 15.460938 L 280.375 22.839844 C 279.480469 20.296875 274.644531 16.796875 272.292969 15.460938 Z M 241.125 22.398438 L 241.125 15.460938 L 248.175781 15.460938 C 245.976563 16.78125 242.527344 20.734375 241.125 22.398438 M 191.332031 15.335938 L 191.332031 43.945313 L 182.585938 15.335938 Z M 130.832031 78.378906 L 124.789063 78.378906 L 124.789063 72.277344 L 130.832031 55.960938 Z M 115.121094 38.261719 L 105.550781 15.386719 L 123.929688 15.398438 Z M 67.9375 15.835938 L 67.9375 18.644531 C 66.898438 17.628906 65.804688 16.6875 64.660156 15.835938 Z M 44.875 69.960938 L 44.875 69.859375 C 50.828125 76.921875 54.460938 83.207031 55.375 88.585938 C 56.5 95.210938 54.625 98.835938 54 99.460938 C 53.375 100.085938 49.75 101.585938 47.875 98.585938 C 46 95.585938 46.75 90.335938 46.75 90.335938 L 44.875 90.367188 Z M 0 0.00390625 L 0 69.960938 L 15.0625 69.960938 L 15.0625 63.523438 L 12.3125 63.523438 L 12.3125 66.648438 L 6 66.648438 L 6 26.089844 L 12.4375 26.089844 L 12.4375 52.710938 L 15 52.710938 L 15 26.089844 L 29.195313 26.089844 C 27.007813 32.535156 27.328125 41.511719 28.5 44.835938 C 29.503906 47.683594 30.632813 51.597656 33.847656 56.609375 L 33.84375 56.609375 L 33.84375 59.585938 L 35.925781 59.585938 C 37.164063 61.238281 38.621094 62.984375 40.375 64.835938 C 41.011719 65.511719 41.625 66.175781 42.222656 66.835938 L 24.5 66.835938 L 24.5 33.960938 L 21.25 33.960938 L 21.25 69.960938 L 41.75 69.960938 L 41.75 90.421875 L 39.25 90.460938 C 39.25 90.460938 37.917969 108.378906 49 108.671875 C 53.25 108.785156 55.8125 109.890625 60.753906 103.113281 C 66.128906 95.738281 60.753906 81.316406 59.25 76.460938 C 58.3125 73.441406 48 60.710938 45.625 59.085938 C 43.25 57.460938 35.933594 47.367188 35.375 40.210938 C 35.003906 35.453125 33.125 31.210938 40.25 23.464844 C 47.375 15.710938 58.625 21.460938 58.625 21.460938 C 58.625 21.460938 64.375 23.589844 66.5 37.085938 L 74.375 37.335938 C 74.375 37.335938 74.226563 30.25 71.792969 24.378906 L 71.792969 12.835938 L 59.53125 12.835938 C 56.796875 11.640625 53.859375 10.964844 50.75 10.964844 C 48.214844 10.964844 45.570313 11.683594 43.019531 12.835938 L 15.125 12.835938 L 15.125 15.835938 L 37.832031 15.835938 C 35.402344 17.554688 33.246094 19.539063 31.625 21.460938 C 31.480469 21.636719 31.351563 21.839844 31.214844 22.023438 L 6 22.023438 L 6 6.503906 L 152.457031 6.503906 L 152.457031 12.796875 L 96.816406 12.796875 L 96.816406 15.378906 L 115.082031 60.003906 L 132.117188 15.710938 L 137.9375 15.710938 L 118.148438 70.207031 L 118.148438 82.296875 L 124.789063 82.296875 L 133.207031 82.253906 L 133.207031 60.128906 L 152.855469 60.128906 L 152.855469 101.671875 L 124 101.671875 L 124 93.710938 L 132.207031 93.710938 L 132.207031 90.171875 L 117.75 90.171875 L 117.75 116.585938 L 152.832031 116.585938 L 152.832031 113.335938 L 124 113.335938 L 124 104.421875 L 155.875 104.421875 L 155.875 48.796875 L 161.75 48.796875 L 161.75 113.335938 L 169.625 113.335938 L 169.625 15.878906 L 174.039063 15.878906 L 191.332031 70.335938 L 198.375 92.378906 L 198.375 15.878906 L 203.59375 15.878906 L 203.59375 25.898438 L 228.90625 25.898438 L 228.90625 22.367188 L 210.09375 22.367188 L 210.09375 12.796875 L 161.75 12.796875 L 161.75 45.960938 L 142.664063 45.960938 L 142.664063 48.796875 L 152.855469 48.796875 L 152.855469 56.546875 L 133.207031 56.546875 L 133.207031 49.546875 L 136.820313 39.796875 L 154.625 39.796875 L 154.625 36.210938 L 138.144531 36.210938 L 145.734375 15.710938 L 152.457031 15.710938 L 152.457031 24.921875 L 146.957031 24.921875 L 146.957031 27.253906 L 155.875 27.253906 L 155.875 6.503906 L 257.8125 6.503906 L 257.8125 12.796875 L 222 12.796875 L 222 15.796875 L 237.664063 15.796875 L 237.664063 32.378906 L 222.332031 32.378906 L 222.332031 35.878906 L 244.71875 35.835938 L 244.78125 32.367188 C 245.71875 27.035156 251.75 20.648438 257.9375 20.148438 C 264.125 19.648438 270.0625 22.085938 272.125 25.042969 C 274.1875 27.996094 274.0625 31.460938 274.0625 31.460938 L 269.25 31.460938 C 269.25 31.460938 269.332031 30.253906 268.832031 28.671875 C 268.171875 26.570313 267 25.003906 262.789063 25.003906 C 259.007813 25.003906 253.4375 24.214844 250.5 29.339844 C 247.414063 34.710938 245.375 49.253906 246.039063 68.003906 C 246.707031 86.753906 246.851563 89.96875 247.957031 97.171875 C 248.707031 102.046875 253.664063 108.546875 259.332031 108.128906 C 265 107.710938 268.875 103.003906 269.375 99.753906 C 269.875 96.503906 269.664063 93.253906 269.664063 93.253906 L 267.414063 93.226563 L 267.414063 73.671875 L 277.914063 73.671875 L 277.914063 69.753906 L 264.25 69.753906 L 264.25 93.191406 L 262.582031 93.171875 C 262.582031 93.171875 262.78125 97.328125 262.539063 99.003906 C 262.441406 99.707031 261.332031 100.503906 259.625 100.421875 C 257.925781 100.335938 255.75 100.296875 255.332031 90.878906 C 254.914063 81.460938 253.707031 68.921875 254.289063 58.171875 L 284.332031 58.171875 L 284.332031 55.253906 L 254.117188 55.253906 C 254.273438 52.402344 254.4375 49.601563 254.625 47.003906 L 266.125 47.003906 L 266.125 43.046875 L 254.945313 43.046875 C 255.351563 38.675781 255.875 35.335938 256.625 34.085938 C 258.125 31.585938 260.832031 30.171875 262.3125 32.671875 L 262.3125 38.648438 L 283.125 38.648438 L 283.125 12.796875 L 261.375 12.796875 L 261.375 6.503906 L 358.582031 6.503906 L 358.582031 24.171875 L 371.125 24.171875 L 371.125 6.503906 L 430.5 6.503906 L 430.5 38.460938 L 442.742188 38.460938 L 444.917969 45.335938 L 425.632813 45.335938 C 425.683594 44.492188 425.726563 43.636719 425.761719 42.761719 C 426.035156 36.054688 424.792969 29.382813 421.375 24.035156 L 421.375 12.796875 L 375.707031 12.796875 L 375.707031 55.023438 L 371.0625 55.023438 L 371.0625 44.585938 L 358.3125 44.585938 L 358.3125 55.023438 L 351.910156 55.023438 C 351.433594 45.015625 350.519531 37.371094 349.207031 31.542969 L 349.207031 12.820313 L 305.539063 12.796875 L 305.433594 12.796875 L 305.433594 26.050781 C 303.066406 32.792969 301.492188 42.960938 300.832031 58.296875 L 308.347656 58.296875 C 309.78125 19.214844 315.859375 19.214844 326.113281 19.214844 C 336.339844 19.214844 343.1875 20.964844 344.125 58.296875 L 383.375 58.296875 L 383.375 18.703125 C 386.742188 18.710938 391.609375 18.085938 395.75 18.089844 C 413.925781 18.097656 419.394531 30.863281 418.894531 43.195313 C 418.277344 58.3125 412.25 71.359375 395.25 69.960938 C 392.460938 69.734375 390.273438 69.878906 388.125 69.714844 L 388.125 103.671875 L 395.625 103.671875 L 395.625 83.585938 L 416.707031 83.585938 L 416.707031 103.671875 L 420.039063 103.671875 L 420.039063 83.585938 L 428.957031 83.585938 L 428.957031 79.921875 L 395.625 79.921875 L 395.625 77.261719 C 396.144531 77.207031 396.652344 77.160156 397.191406 77.085938 C 412.960938 74.941406 419.914063 69.105469 423.089844 60.398438 L 433.3125 60.398438 L 433.3125 57.273438 L 424.042969 57.273438 C 424.679688 54.761719 425.082031 52.046875 425.351563 49.148438 L 454.125 49.148438 L 441.25 12.847656 L 441.25 12.796875 L 441.230469 12.796875 L 441.230469 12.792969 L 434 12.796875 L 434 6.503906 L 512.125 6.503906 L 512.125 25.089844 L 502.375 25.089844 L 502.375 27.839844 L 518.125 27.839844 L 518.125 0.00390625 "/>
</g>
<g clip-path="url(#clip2)" clip-rule="nonzero">
<path style=" stroke:none;fill-rule:nonzero;fill:rgb(10.998535%,10.998535%,10.598755%);fill-opacity:1;" d="M 512.375 39.898438 L 512.375 112.835938 L 497.75 112.835938 L 497.75 116.085938 L 512.375 116.085938 L 512.375 123.523438 L 432.792969 123.523438 L 432.792969 116.335938 L 484.75 116.335938 L 484.75 112.710938 L 473.25 112.710938 L 473.25 104.960938 L 505 104.960938 L 505 46.960938 L 491 46.960938 L 491 50.210938 L 501.375 50.210938 L 501.375 101.398438 L 473.25 101.398438 L 473.25 92.460938 L 481.375 92.460938 L 481.375 88.960938 L 473.25 88.960938 L 473.25 81.648438 L 482.0625 81.648438 L 482.0625 46.230469 L 489.875 25.964844 L 489.875 39.898438 Z M 473.25 69.085938 L 479.25 53.523438 L 479.25 78.773438 L 473.25 78.773438 Z M 430.207031 123.523438 L 329.09375 123.523438 L 329.09375 120.128906 C 333.574219 119.832031 337.621094 118.625 341.035156 115.710938 L 349.28125 115.710938 L 349.28125 112.804688 L 343.777344 112.804688 C 345.542969 110.515625 347.070313 107.566406 348.328125 103.804688 L 366.21875 103.804688 L 366.21875 101.179688 L 349.125 101.179688 C 350.96875 94.464844 352.0625 85.492188 352.242188 73.585938 L 360.6875 73.585938 L 360.6875 89.898438 L 358.25 89.898438 L 358.25 92.523438 L 364.5625 92.523438 L 364.5625 73.585938 L 375.875 73.585938 L 375.875 79.503906 L 372.792969 79.503906 L 372.792969 92.335938 L 375.875 92.335938 L 375.875 112.710938 L 364.625 112.710938 L 364.625 116.335938 L 430.207031 116.335938 Z M 325.125 123.523438 L 304.125 123.523438 L 304.125 115.847656 C 307.878906 115.171875 310.359375 114.816406 311.816406 114.636719 C 315.742188 118.175781 320.335938 119.863281 325.125 120.152344 Z M 304.125 102.898438 C 305.78125 107.15625 307.871094 110.5 310.253906 113.085938 L 304.125 113.085938 Z M 227.625 123.523438 L 218.75 123.523438 L 218.75 75.585938 L 216.125 75.585938 L 216.125 123.523438 L 190.375 123.523438 L 190.375 112.898438 L 186.6875 112.898438 L 186.6875 123.523438 L 181.625 123.523438 L 181.625 83.210938 L 182.222656 83.210938 L 193.808594 117.753906 L 210.082031 117.753906 L 210.082031 66.171875 L 226.5 66.164063 L 226.5 102.585938 L 230.25 102.585938 L 230.25 45.835938 L 235.730469 45.835938 C 235.625 48.246094 235.472656 55.007813 235.292969 73.003906 C 235.097656 92.328125 237.4375 105.347656 242.691406 112.753906 L 227.625 112.753906 Z M 51.792969 123.523438 L 15.1875 123.523438 L 15.1875 115.898438 L 26.8125 115.898438 L 26.8125 113.023438 L 15.1875 113.023438 L 15.1875 102.960938 L 12.625 102.960938 L 12.625 123.523438 L 6.207031 123.523438 L 6.207031 80.835938 L 29.25 80.835938 L 29.25 89.335938 L 13.75 89.335938 L 13.75 92.585938 L 27.523438 92.585938 C 27.523438 95.085938 27.597656 99.527344 28.042969 101.253906 C 28.070313 101.363281 28.101563 101.476563 28.128906 101.585938 L 26.042969 101.585938 L 26.042969 104.171875 L 28.886719 104.171875 C 30.4375 108.859375 33.417969 114.359375 41.082031 117.710938 C 45.304688 119.558594 48.742188 120.371094 51.792969 120.460938 Z M 87.042969 67.460938 L 82.460938 67.460938 L 82.460938 58.960938 L 87.042969 58.960938 Z M 59.894531 56.085938 C 55.371094 50.578125 50.003906 43.964844 49.375 42.835938 C 48.066406 40.496094 46.375 36.460938 48.359375 32.566406 C 50.304688 28.753906 53.375 32.335938 53.707031 33.253906 C 54.042969 34.171875 54.457031 37.085938 54.457031 37.085938 L 56.207031 37.085938 L 56.207031 49.585938 L 86.707031 49.585938 L 86.707031 56.003906 L 78.875 56.003906 L 78.875 70.085938 L 89.917969 70.085938 L 89.917969 38.171875 L 93.421875 38.171875 L 105.375 70.109375 L 105.375 89.335938 L 99.875 89.335938 L 99.875 66.835938 L 96.542969 66.835938 L 96.542969 76.585938 L 72.039063 76.585938 C 71.75 75.671875 71.449219 74.757813 71.125 73.859375 L 71.125 56.085938 Z M 67.542969 65.890625 C 67.140625 65.179688 66.726563 64.492188 66.292969 63.835938 C 66.292969 63.835938 64.863281 62.121094 62.84375 59.671875 L 67.542969 59.671875 Z M 82.417969 35.460938 L 82.417969 15.421875 L 84.90625 15.421875 L 92.40625 35.460938 Z M 493.25 15.835938 L 503.3125 15.835938 L 503.3125 12.796875 L 485.875 12.796875 L 466.5 69.085938 L 466.5 112.710938 L 460.375 112.710938 L 460.375 69.335938 L 457.457031 57.921875 L 447.207031 57.921875 L 447.207031 59.835938 L 449.589844 59.835938 L 453.042969 69.335938 L 422.957031 69.335938 L 422.957031 72.171875 L 442.707031 72.171875 L 442.707031 102.921875 L 445.457031 102.921875 L 445.457031 72.171875 L 453.957031 72.171875 L 453.957031 112.710938 L 432.417969 112.710938 L 432.417969 94.171875 L 429.707031 94.171875 L 429.707031 112.710938 L 406.167969 112.710938 L 406.167969 93.585938 L 403.457031 93.585938 L 403.457031 112.710938 L 382.875 112.710938 L 382.875 69.835938 L 344.375 69.835938 C 343.945313 104.652344 337.316406 113.585938 326.625 113.585938 C 316.011719 113.585938 307.875 106.53125 308.085938 69.835938 L 297.707031 69.835938 L 297.707031 72.710938 L 299.996094 72.710938 C 299.78125 82.71875 300.660156 90.855469 302.351563 97.378906 L 299.875 97.378906 L 299.875 123.523438 L 230.292969 123.523438 L 230.292969 116.335938 L 245.949219 116.335938 C 249.425781 119.246094 253.796875 120.515625 259.125 120.253906 C 264.632813 119.984375 268.628906 118.292969 271.671875 116.128906 L 279.75 116.128906 L 279.75 107.152344 C 282.292969 102.289063 281.792969 92.921875 281.792969 92.921875 L 279.542969 92.921875 L 279.542969 85.378906 L 288.125 85.378906 L 288.125 115.253906 L 291.375 115.253906 L 291.375 82.335938 L 276.875 82.335938 L 276.875 92.921875 L 274.207031 92.921875 C 274.207031 92.921875 274.101563 98.347656 273.792969 102.503906 C 273.207031 110.335938 258.085938 114.582031 252.125 111.421875 C 248.042969 109.253906 245.4375 106.328125 243.457031 96.585938 C 241.457031 86.753906 242.5625 42.710938 242.5625 42.710938 L 226.5 42.710938 L 226.5 62.585938 L 218.417969 62.585938 L 218.417969 44.253906 L 215.832031 44.253906 L 215.832031 62.585938 L 210.082031 62.585938 L 210.082031 36.460938 L 211.84375 36.460938 L 211.84375 33.335938 L 202.75 33.335938 L 202.75 110.796875 L 199.136719 110.796875 L 173.625 34.960938 L 173.625 123.523438 L 112.0625 123.523438 L 112.0625 113.273438 L 80.1875 113.273438 L 80.1875 116.398438 L 108.625 116.398438 L 108.625 123.523438 L 53.957031 123.523438 L 53.957031 120.390625 C 57 120.121094 59.710938 119.128906 62.542969 117.753906 C 68.707031 114.753906 75.726563 107.171875 75.707031 97.585938 C 75.703125 93.660156 74.929688 87.492188 73.3125 81.085938 L 96.542969 81.085938 L 96.542969 89.835938 L 79.625 89.835938 L 79.625 103.671875 L 83.792969 103.671875 L 83.792969 93.171875 L 105.042969 93.171875 L 105.042969 101.585938 L 93.625 101.585938 L 93.625 105.585938 L 111.917969 105.585938 L 111.957031 69.753906 L 91.582031 15.421875 L 91.582031 12.796875 L 78.832031 12.796875 L 78.832031 38.171875 L 86.332031 38.171875 L 86.332031 46.171875 L 59.292969 46.171875 L 59.292969 37.085938 L 61.542969 37.085938 C 61.542969 37.085938 61.21875 28.972656 58.207031 26.878906 C 54.25 24.128906 45.292969 22.671875 42.042969 29.085938 C 38.792969 35.503906 40.292969 41.253906 40.292969 41.253906 C 40.292969 41.253906 43.125 50.085938 49.792969 56.171875 C 56.457031 62.253906 64.457031 75.671875 65.625 79.753906 C 66.792969 83.835938 71.125 103.835938 61.292969 110.085938 C 51.457031 116.335938 42.542969 110.671875 42.542969 110.671875 C 42.542969 110.671875 35.625 107.335938 34.542969 90.835938 L 32.449219 90.828125 L 32.457031 78.085938 L 0 78.085938 L 0 129.921875 L 518.125 129.921875 L 518.125 36.398438 L 493.25 36.398438 "/>
</g>
<path style=" stroke:none;fill-rule:nonzero;fill:rgb(10.998535%,10.998535%,10.598755%);fill-opacity:1;" d="M 464.296875 38.351563 L 455.3125 15.523438 L 472.75 15.523438 Z M 479.6875 12.796875 L 447 12.796875 L 447 15.523438 L 463.4375 61.398438 L 479.6875 15.523438 "/>
</g>
</svg>
